<?xml version="1.0" encoding="UTF-8"?>
<!DOCTYPE svg PUBLIC "-//W3C//DTD SVG 1.1//EN" "http://www.w3.org/Graphics/SVG/1.1/DTD/svg11.dtd">
<!-- Creator: CorelDRAW 2019 (64-Bit) -->
<svg xmlns="http://www.w3.org/2000/svg" xml:space="preserve" width="37.45mm" height="11.101mm" version="1.1" style="shape-rendering:geometricPrecision; text-rendering:geometricPrecision; image-rendering:optimizeQuality; fill-rule:evenodd; clip-rule:evenodd"
viewBox="0 0 3745 1110.1"
 xmlns:xlink="http://www.w3.org/1999/xlink">
 <defs>
  <style type="text/css">
   <![CDATA[
    .str0 {stroke:#002E40;stroke-width:10;stroke-miterlimit:22.9256}
    .fil2 {fill:none}
    .fil0 {fill:#002E40}
    .fil1 {fill:#FA9600}
    .fil3 {fill:#002E40;fill-rule:nonzero}
    .fil4 {fill:#2A5769;fill-rule:nonzero}
    .fil5 {fill:#FA9600;fill-rule:nonzero}
   ]]>
  </style>
 </defs>
 <g id="Layer_x0020_1">
  <metadata id="CorelCorpID_0Corel-Layer"/>
  <rect class="fil0" x="-7.1" y="152.47" width="153.21" height="958.08"/>
  <rect class="fil0" transform="matrix(3.96624E-15 -0.149757 0.149757 3.96624E-15 -7.10075 156.96)" width="1023.06" height="6367.65"/>
  <polygon class="fil0" points="146.11,1110.56 27.26,1013.87 827.65,60.27 946.5,156.96 "/>
  <polygon class="fil1" points="201.43,1108.06 302.01,1108.43 516.1,853.36 448.76,813.39 "/>
  <polygon class="fil1" points="358.12,1108.64 458.69,1109.01 621.01,915.62 553.67,875.65 "/>
  <path class="fil1" d="M512.17 1109.21l19.88 0.07 81.17 -0.27 110.94 -132.17 -67.34 -39.97 -144.65 172.34zm19.88 0.07l81.17 -0.27 -81.17 0.27z"/>
  <line class="fil2" x1="358.12" y1="1108.64" x2="458.69" y2= "1109.01" />
  <path class="fil3" d="M1718.83 127.12l-63.82 0 -91.41 235.29 -90.98 -235.29 -63.82 0 125.48 303.56 59.07 0 125.48 -303.56zm162.13 125.05l80.2 -124.62 68.56 0 0 2.59 -120.3 174.64 0 124.61 -56.92 0 0 -124.61 -115.99 -174.64 0 -2.59 67.7 0 76.75 124.62zm239.74 -70.72l85.38 0c72.44,0 72.88,106.94 0,106.94l-85.38 0 0 -106.94zm85.38 -54.33c-47.43,-0.43 -94.86,0 -142.29,0l0 302.27 56.91 0 0 -88.83 85.38 0c147.9,0 147.47,-213.44 0,-213.44zm357.47 0.86l0 172.92c0,51.74 -26.74,83.22 -73.74,83.22 -47,0 -78.05,-28.89 -78.05,-83.22l0 -172.92 -56.48 0 0 172.92c0,90.98 61.66,134.96 134.1,134.96 75.89,0 130.65,-45.71 130.65,-134.96l0 -172.92 -56.48 0zm365.22 -0.86c-49.59,0 -98.74,0 -147.9,0l0 53.04 90.98 0 0 120.16c0,45.78 -24.14,81.64 -75.89,81.64 -51.31,0 -76.32,-26.38 -76.32,-78.19l-56.06 0c0,85.52 55.2,131.66 132.38,131.66 83.22,0 132.81,-56.92 132.81,-135.11l0 -173.2zm280.71 225.09c-19.83,19.83 -49.59,30.61 -75.89,30.61 -74.6,0 -103.49,-52.17 -103.92,-102.19 -0.43,-50.45 31.05,-104.78 103.92,-104.78 26.3,0 53.04,9.05 72.87,28.46l37.95 -36.66c-31.05,-30.61 -69.85,-46.13 -110.82,-46.13 -109.09,0 -160.4,80.2 -159.97,159.11 0.43,78.48 47.86,155.66 159.97,155.66 43.55,0 83.65,-14.23 114.7,-44.84l-38.81 -39.24zm255.7 -37.66l-147.9 -187.43 -46.14 0 0 302.27 56.92 0 0 -203.81 158.68 203.81 0 0 35.36 0 0 -302.27 -56.92 0 0 187.43zm109.53 114.84l0 -301.84 56.48 0 0 301.84 -56.48 0z"/>
  <path class="fil4" d="M3443.67 528.62l11.42 13.01 -5.17 4.68 -5.13 4.61 16.1 17.18 -23.19 0 -6.61 -6.83c-10.55,6.22 -20.39,9.34 -29.45,9.34 -7.69,0 -13.91,-2.26 -18.69,-6.75 -4.76,-4.5 -7.13,-10.28 -7.13,-17.34 0,-5.34 1.36,-10.35 4.06,-15.1 2.68,-4.73 7.32,-9.61 13.84,-14.65 -6.43,-8.7 -9.65,-16.4 -9.65,-23.09 0,-4.95 2.15,-9.84 6.42,-14.66 4.27,-4.82 10.31,-7.24 18.1,-7.24 7.84,0 13.88,2.4 18.1,7.18 4.21,4.76 6.31,9.59 6.31,14.46 0,3.82 -0.95,7.48 -2.89,10.98 -1.93,3.52 -6.36,8.71 -13.3,15.56 8.13,9.6 13.37,15.57 15.75,17.91 1.44,-1.07 5.14,-4.16 11.11,-9.25zm-36.29 -22.06c5.05,-4.34 7.58,-8.12 7.58,-11.46 0,-1.73 -0.55,-3.12 -1.7,-4.21 -1.13,-1.1 -2.65,-1.64 -4.52,-1.64 -1.71,0 -3.18,0.61 -4.39,1.84 -1.21,1.24 -1.82,2.66 -1.82,4.29 0,3.26 1.6,6.98 4.85,11.18zm11.45 41.33c-3.53,-3.45 -8.52,-9.13 -14.93,-17.09 -6.78,5.59 -10.18,10.46 -10.18,14.65 0,1.95 0.93,3.75 2.77,5.38 1.87,1.62 4.2,2.45 7.03,2.45 4.09,0 9.19,-1.79 15.31,-5.39z"/>
  <path class="fil3" d="M1635.33 854.1l-75.89 -85.55c47.61,-9.67 63.36,-44.39 63.36,-78.93 0,-43.49 -31.15,-82.86 -90.21,-83.22 -39.73,0.36 -79.46,0 -119.19,0l0 250.92 47.24 0 0 -83.76 45.47 0 73.02 83.76 56.2 0 0 -3.22zm-102.74 -203.67c29.71,0 42.96,20.1 42.96,40.27 0,20.16 -12.89,40.27 -42.96,40.27l-71.95 0 0 -80.54 71.95 0zm308.92 160.36l-140.68 0 0 -56.56 135.67 0 0 -44.03 -135.67 0 0 -57.99 140.68 0 0 -45.81 -187.57 0c0,83.64 0,167.52 0,250.92l187.57 0 0 -46.53zm25.05 -160.01l123.86 0 -127.08 179.34 0 27.2 195.8 0 0 -44.74 -129.93 0 129.93 -183.99 0 -22.19 -192.58 0 0 44.38zm408.07 160.01l-140.67 0 0 -56.56 135.66 0 0 -44.03 -135.66 0 0 -57.99 140.67 0 0 -45.81 -187.57 0c0,83.64 0,167.52 0,250.92l187.57 0 0 -46.53zm258.8 43.31l-75.88 -85.55c47.6,-9.67 63.35,-44.39 63.35,-78.93 0,-43.49 -31.14,-82.86 -90.2,-83.22 -39.73,0.36 -79.47,0 -119.2,0l0 250.92 47.25 0 0 -83.76 45.46 0 73.02 83.76 56.2 0 0 -3.22zm-102.73 -203.67c29.71,0 42.95,20.1 42.95,40.27 0,20.16 -12.88,40.27 -42.95,40.27l-71.95 0 0 -80.54 71.95 0zm362.25 -44.03l-52.98 0 -75.88 195.32 -75.53 -195.32 -52.98 0 104.16 252 49.04 0 104.17 -252zm228.02 250.92l51.54 0 -112.4 -250.92 -51.54 0 -112.4 250.92 51.19 0 21.47 -47.25 131.02 0 21.12 47.25zm-40.1 -91.28l-93.06 0 46.53 -106.9 46.53 106.9zm286.72 27.21c-16.46,16.47 -41.16,25.41 -62.99,25.41 -61.93,0 -85.91,-43.31 -86.27,-84.83 -0.36,-41.88 25.77,-86.98 86.27,-86.98 21.83,0 44.02,7.51 60.49,23.62l31.5 -30.43c-25.77,-25.41 -57.99,-38.3 -91.99,-38.3 -90.57,0 -133.16,66.58 -132.81,132.09 0.36,65.15 39.74,129.22 132.81,129.22 36.15,0 69.44,-11.81 95.21,-37.23l-32.22 -32.57zm212.27 -31.26l-122.78 -155.59 -38.3 0 0 250.92 47.25 0 0 -169.19 131.73 169.19 0 0 29.35 0 0 -250.92 -47.25 0 0 155.59zm90.92 95.33l0 -250.56 46.89 0 0 250.56 -46.89 0z"/>
  <path class="fil5" d="M3066.41 987.73c-8.66,-17.65 -27.12,-22.72 -44.93,-22.72 -21.06,0.17 -44.26,9.81 -44.26,33.33 0,25.65 21.56,31.85 44.92,34.63 15.19,1.64 26.46,6.05 26.46,16.83 0,12.41 -12.74,17.15 -26.29,17.15 -13.89,0 -27.12,-5.56 -32.18,-18.13l-17.98 9.3c8.49,20.91 26.47,28.1 49.82,28.1 25.49,0 48.03,-10.94 48.03,-36.42 0,-27.29 -22.22,-33.48 -46.07,-36.43 -13.72,-1.63 -25.48,-4.41 -25.48,-14.37 0,-8.5 7.68,-15.2 23.69,-15.2 12.41,0 23.19,6.21 27.12,12.74l17.15 -8.81zm34.31 -18.95l-25.65 0 0 0.98 43.94 66.23 0 47.29 21.55 0 0 -47.29 45.58 -66.23 0 -0.98 -25.97 0 -30.38 47.29 -29.07 -47.29zm182.62 18.95c-8.66,-17.65 -27.12,-22.72 -44.93,-22.72 -21.06,0.17 -44.27,9.81 -44.27,33.33 0,25.65 21.57,31.85 44.93,34.63 15.19,1.64 26.46,6.05 26.46,16.83 0,12.41 -12.74,17.15 -26.29,17.15 -13.89,0 -27.12,-5.56 -32.19,-18.13l-17.97 9.3c8.49,20.91 26.46,28.1 49.82,28.1 25.48,0 48.03,-10.94 48.03,-36.42 0,-27.29 -22.22,-33.48 -46.07,-36.43 -13.72,-1.63 -25.48,-4.41 -25.48,-14.37 0,-8.5 7.67,-15.2 23.69,-15.2 12.41,0 23.19,6.21 27.12,12.74l17.15 -8.81zm49.82 95.55l21.56 0 0 -94.9 36.27 0 0 -19.6c-33.16,0 -61.09,0 -94.1,0l0 19.6 36.27 0 0 94.9zm156.17 0l-85.6 0c0,-38.05 0,-76.28 0,-114.5l85.6 0 0 20.91 -64.2 0 0 26.46 61.9 0 0 20.08 -61.9 0 0 25.82 64.2 0 0 21.23zm-15.85 -149.13l-23.53 0 -12.08 22.21 0 0.98 17.64 0 17.97 -22.38 0 -0.81zm131.32 149.13l21.56 0 0 -114.18 -24.65 0 -35.78 49.08 -35.78 -49.08 -24.82 0 0 114.18 21.56 0 0 -83 36.42 49.74 4.26 0 37.23 -49.58 0 82.84z"/>
  <polygon class="fil3" points="3114.47,95.91 3143.36,95.91 3208.91,36.4 3208.91,33.82 3157.16,33.82 3129.57,60.12 3104.12,33.82 3050.66,33.82 3050.66,36.4 "/>
  <polygon class="fil3" points="3183.55,583.19 3207.31,583.19 3261.2,534.26 3261.2,532.13 3218.65,532.13 3195.96,553.76 3175.04,532.13 3131.07,532.13 3131.07,534.26 "/>
  <path class="fil3 str0" d="M2483.98 30.8c-25.25,0 -37.56,19.3 -37.56,38.51 0,19.2 11.89,37.67 37.56,37.67 25.68,0 37.26,-18.89 37.47,-37.78 0.21,-19.1 -12.32,-38.4 -37.47,-38.4zm0 12.52c17.22,0 24.11,13.77 23.9,26.09 -0.21,12 -6.68,24.94 -23.9,24.94 -17.21,0 -23.68,-12.84 -24,-24.84 -0.31,-12.31 6.79,-26.19 24,-26.19z"/>
  <path class="fil3" d="M1948.23 35.71l-62.1 0 -31.91 58.64 0 2.59 46.58 0 47.43 -59.08 0 -2.15zm1723.5 3.02l-62.1 0 -31.91 58.64 0 2.59 46.58 0 47.43 -59.08 0 -2.15z"/>
  <polygon class="fil3" points="3651.32,533.02 3599.78,533.02 3573.29,581.7 3573.29,583.85 3611.95,583.85 3651.32,534.81 "/>
 </g>
</svg>
