<?xml version="1.0" encoding="UTF-8"?>
<!DOCTYPE svg PUBLIC "-//W3C//DTD SVG 1.1//EN" "http://www.w3.org/Graphics/SVG/1.1/DTD/svg11.dtd">
<!-- Creator: CorelDRAW 2019 (64-Bit) -->
<svg xmlns="http://www.w3.org/2000/svg" xml:space="preserve" width="9.564mm" height="11.101mm" version="1.1" style="shape-rendering:geometricPrecision; text-rendering:geometricPrecision; image-rendering:optimizeQuality; fill-rule:evenodd; clip-rule:evenodd"
viewBox="0 0 956.4 1110.1"
 xmlns:xlink="http://www.w3.org/1999/xlink">
 <defs>
  <style type="text/css">
   <![CDATA[
    .fil2 {fill:none}
    .fil0 {fill:#002E40}
    .fil1 {fill:#FA9600}
   ]]>
  </style>
 </defs>
 <g id="Layer_x0020_1">
  <metadata id="CorelCorpID_0Corel-Layer"/>
  <rect class="fil0" x="-4.4" y="152.91" width="153.66" height="960.91"/>
  <rect class="fil0" transform="matrix(3.97792E-15 -0.150198 0.150198 3.97792E-15 -4.39874 157.41)" width="1023.06" height="6367.65"/>
  <polygon class="fil0" points="149.26,1113.82 30.07,1016.84 832.81,60.43 952.01,157.41 "/>
  <polygon class="fil1" points="204.75,1111.32 305.62,1111.69 520.35,855.86 452.8,815.77 "/>
  <polygon class="fil1" points="361.89,1111.89 462.77,1112.26 625.56,918.31 558.02,878.22 "/>
  <path class="fil1" d="M516.4 1112.46l19.94 0.08 81.41 -0.27 111.27 -132.57 -67.55 -40.08 -145.07 172.84zm19.94 0.08l81.41 -0.27 -81.41 0.27z"/>
  <line class="fil2" x1="361.89" y1="1111.89" x2="462.77" y2= "1112.26" />
 </g>
</svg>
