<?xml version="1.0" standalone="no"?>
<!DOCTYPE svg PUBLIC "-//W3C//DTD SVG 20010904//EN"
 "http://www.w3.org/TR/2001/REC-SVG-20010904/DTD/svg10.dtd">
<svg version="1.0" class="mailSvg" style="color: #002c3d;" xmlns="http://www.w3.org/2000/svg"
 width="512.000000pt" height="512.000000pt" viewBox="0 0 512.000000 512.000000"
 preserveAspectRatio="xMidYMid meet">

<g transform="translate(0.000000,512.000000) scale(0.100000,-0.100000)"
fill="#002c3d" stroke="none">
<path d="M244 4471 c-47 -12 -133 -62 -160 -94 -14 -17 -37 -53 -52 -81 -25
-48 -26 -60 -30 -216 l-3 -165 1281 -671 1280 -672 1280 672 1281 671 -3 165
-3 165 -34 63 c-38 70 -69 100 -145 140 l-51 27 -2305 2 c-1268 0 -2319 -2
-2336 -6z"/>
<path d="M2 2038 l3 -1163 27 -51 c40 -76 70 -107 140 -145 l63 -34 2325 0
2325 0 51 27 c76 40 107 70 145 140 l34 63 3 1163 2 1164 -102 -55 c-217 -116
-2039 -1067 -2145 -1121 -141 -70 -246 -106 -313 -106 -67 0 -172 36 -313 106
-106 54 -1928 1005 -2145 1121 l-102 55 2 -1164z"/>
</g>
</svg>
